<svg width="198" height="70.6" viewBox="0 0 198 70.6" xmlns="http://www.w3.org/2000/svg"><g id="svgGroup" stroke-linecap="round" fill-rule="evenodd" font-size="9pt" stroke="#fe705a" stroke-width="0.25mm" fill="#fe705a" style="stroke:#fe705a;stroke-width:0.25mm;fill:#fe705a"><path d="M 9.2 69.8 L 0 69.8 Q 2.2 64.2 5.05 57.35 A 1240.182 1240.182 0 0 1 10.903 43.525 A 1352.873 1352.873 0 0 1 11 43.3 Q 14.1 36.1 17.15 29.3 Q 20.2 22.5 22.75 16.85 Q 25.173 11.482 26.829 7.874 A 826.035 826.035 0 0 1 27 7.5 A 338.794 338.794 0 0 1 27.595 6.211 Q 28.699 3.836 29.131 3.027 A 8.929 8.929 0 0 1 29.2 2.9 Q 24.8 2.8 20.2 3.75 A 46.454 46.454 0 0 0 13.185 5.765 A 41.594 41.594 0 0 0 11.6 6.4 Q 7.6 8.1 4.85 10.3 A 14.72 14.72 0 0 0 3.19 11.836 Q 1.825 13.325 1.3 14.9 A 0.532 0.532 0 0 1 1.228 15.045 Q 1.116 15.2 0.9 15.2 A 0.665 0.665 0 0 1 0.264 14.811 Q 0.117 14.522 0.102 14.017 A 3.941 3.941 0 0 1 0.1 13.9 A 1.906 1.906 0 0 1 0.111 13.702 Q 0.123 13.583 0.15 13.45 Q 0.2 13.202 0.298 12.905 A 7.405 7.405 0 0 1 0.3 12.9 Q 1.2 10.3 2.55 8.3 A 33.853 33.853 0 0 1 3.805 6.557 Q 4.421 5.758 5.027 5.089 A 20.132 20.132 0 0 1 5.2 4.9 A 15.528 15.528 0 0 1 8.47 2.295 A 12.569 12.569 0 0 1 12.6 0.75 A 46.546 46.546 0 0 1 19.023 0.047 A 54.187 54.187 0 0 1 21.3 0 L 31 0 L 35.3 0 A 7.123 7.123 0 0 1 37.447 0.314 A 6.212 6.212 0 0 1 39 1.05 A 3.795 3.795 0 0 1 40.154 2.283 Q 40.811 3.366 41.1 5.1 Q 41.406 6.708 41.683 9.576 A 133.894 133.894 0 0 1 41.85 11.45 Q 42.2 15.7 42.45 20.9 Q 42.7 26.1 42.9 31.2 A 985.746 985.746 0 0 1 43.036 34.828 Q 43.087 36.258 43.128 37.551 A 523.57 523.57 0 0 1 43.2 40 A 3.885 3.885 0 0 0 43.202 40.102 Q 43.209 40.356 43.244 41.031 A 159.357 159.357 0 0 0 43.25 41.15 Q 43.3 42.095 43.3 43.484 A 84.531 84.531 0 0 1 43.3 43.5 Q 43.3 44.714 43.256 46.233 A 135.559 135.559 0 0 1 43.25 46.45 Q 43.2 48.1 43 49.6 Q 45.049 47.063 48.098 43.336 A 2261.032 2261.032 0 0 1 48.25 43.15 Q 51.4 39.3 55.1 34.75 Q 58.8 30.2 62.6 25.6 A 2756.836 2756.836 0 0 1 68.131 18.925 A 2415.049 2415.049 0 0 1 69.9 16.8 Q 72.306 13.913 74.311 11.522 A 1542.722 1542.722 0 0 1 76.05 9.45 Q 78.079 7.038 79.316 5.535 A 167.869 167.869 0 0 0 80 4.7 A 12.266 12.266 0 0 1 85.745 1.067 A 14.592 14.592 0 0 1 85.8 1.05 Q 89.3 0 92.8 0 L 99 0 A 12.342 12.342 0 0 0 97.648 1.215 Q 96.334 2.567 94.88 4.686 A 44.259 44.259 0 0 0 94.4 5.4 Q 91.9 9.2 89.55 13.6 A 396.082 396.082 0 0 0 87.342 17.792 Q 86.306 19.789 85.407 21.586 A 231.357 231.357 0 0 0 85.4 21.6 A 272.59 272.59 0 0 0 82.111 28.702 A 332.924 332.924 0 0 0 80.1 33.3 Q 77.4 39.6 75.3 45.8 Q 73.2 52 72.2 57.3 Q 71.9 58.9 71.9 60.7 A 10.913 10.913 0 0 0 72.062 62.627 A 8.072 8.072 0 0 0 72.65 64.55 A 2.783 2.783 0 0 0 73.463 65.617 Q 73.989 66.027 74.733 66.149 A 4.13 4.13 0 0 0 75.4 66.2 A 5.073 5.073 0 0 0 76.626 66.036 Q 77.818 65.738 79.3 64.9 L 79.4 64.9 Q 79.583 64.9 79.683 65.194 A 1.237 1.237 0 0 1 79.7 65.25 Q 79.8 65.6 79.6 65.8 Q 77.7 67.8 73.8 69.2 A 24.924 24.924 0 0 1 69.884 70.272 A 19.281 19.281 0 0 1 66.4 70.6 A 11.548 11.548 0 0 1 64.555 70.464 Q 63.611 70.311 62.878 69.985 A 4.108 4.108 0 0 1 61.1 68.55 A 7.756 7.756 0 0 1 59.949 65.829 Q 59.7 64.708 59.7 63.4 A 23.391 23.391 0 0 1 59.876 60.621 Q 60.044 59.219 60.373 57.676 A 40.1 40.1 0 0 1 60.5 57.1 Q 61.171 53.892 62.65 49.793 A 94.394 94.394 0 0 1 63.75 46.9 A 256.212 256.212 0 0 1 67.265 38.528 A 302.032 302.032 0 0 1 69.05 34.55 Q 72 28.1 74.95 22.2 Q 77.9 16.3 80.1 12.1 A 171.732 171.732 0 0 0 77.619 14.438 A 186.835 186.835 0 0 0 77.45 14.6 A 43.693 43.693 0 0 0 75.743 16.342 A 52.758 52.758 0 0 0 74.7 17.5 Q 68.9 24 64.15 29.85 A 568.628 568.628 0 0 0 55.322 40.997 A 523.343 523.343 0 0 0 55.05 41.35 Q 50.7 47 46.1 52.9 Q 44.039 55.62 42.692 57.219 A 40.115 40.115 0 0 1 42.15 57.85 Q 40.7 59.5 39.55 60.05 A 5.236 5.236 0 0 1 38.351 60.445 Q 37.79 60.561 37.142 60.591 A 9.853 9.853 0 0 1 36.7 60.6 Q 34.742 60.6 32.355 59.68 A 20.93 20.93 0 0 1 31 59.1 Q 32.354 57.456 32.913 52.165 A 49.897 49.897 0 0 0 32.95 51.8 A 107.148 107.148 0 0 0 33.326 46.594 Q 33.456 43.936 33.489 40.994 A 179.809 179.809 0 0 0 33.5 39 A 233.193 233.193 0 0 0 33.117 25.842 A 258.323 258.323 0 0 0 33 23.9 Q 32.57 17.197 31.771 11.823 A 99.396 99.396 0 0 0 31.5 10.1 Q 30.9 11.1 29.35 14.5 Q 27.8 17.9 25.65 22.85 Q 23.5 27.8 21.1 33.55 Q 18.7 39.3 16.45 45.05 A 294.979 294.979 0 0 0 13.833 51.984 A 240.43 240.43 0 0 0 12.45 55.9 Q 11.11 59.805 10.269 62.889 A 67.428 67.428 0 0 0 9.8 64.7 A 38.43 38.43 0 0 0 9.505 66.007 Q 8.956 68.663 9.2 69.8 Z M 108.2 69.8 L 99 69.8 Q 101.2 64.2 104.05 57.35 A 1240.182 1240.182 0 0 1 109.903 43.525 A 1352.873 1352.873 0 0 1 110 43.3 Q 113.1 36.1 116.15 29.3 Q 119.2 22.5 121.75 16.85 Q 124.173 11.482 125.829 7.874 A 826.035 826.035 0 0 1 126 7.5 A 338.794 338.794 0 0 1 126.595 6.211 Q 127.699 3.836 128.131 3.027 A 8.929 8.929 0 0 1 128.2 2.9 Q 123.8 2.8 119.2 3.75 A 46.454 46.454 0 0 0 112.185 5.765 A 41.594 41.594 0 0 0 110.6 6.4 Q 106.6 8.1 103.85 10.3 A 14.72 14.72 0 0 0 102.19 11.836 Q 100.825 13.325 100.3 14.9 A 0.532 0.532 0 0 1 100.228 15.045 Q 100.116 15.2 99.9 15.2 A 0.665 0.665 0 0 1 99.264 14.811 Q 99.117 14.522 99.102 14.017 A 3.941 3.941 0 0 1 99.1 13.9 A 1.906 1.906 0 0 1 99.111 13.702 Q 99.123 13.583 99.15 13.45 Q 99.2 13.202 99.298 12.905 A 7.405 7.405 0 0 1 99.3 12.9 Q 100.2 10.3 101.55 8.3 A 33.853 33.853 0 0 1 102.805 6.557 Q 103.421 5.758 104.027 5.089 A 20.132 20.132 0 0 1 104.2 4.9 A 15.528 15.528 0 0 1 107.47 2.295 A 12.569 12.569 0 0 1 111.6 0.75 A 46.546 46.546 0 0 1 118.023 0.047 A 54.187 54.187 0 0 1 120.3 0 L 130 0 L 134.3 0 A 7.123 7.123 0 0 1 136.447 0.314 A 6.212 6.212 0 0 1 138 1.05 A 3.795 3.795 0 0 1 139.154 2.283 Q 139.811 3.366 140.1 5.1 Q 140.406 6.708 140.683 9.576 A 133.894 133.894 0 0 1 140.85 11.45 Q 141.2 15.7 141.45 20.9 Q 141.7 26.1 141.9 31.2 A 985.746 985.746 0 0 1 142.036 34.828 Q 142.087 36.258 142.128 37.551 A 523.57 523.57 0 0 1 142.2 40 A 3.885 3.885 0 0 0 142.202 40.102 Q 142.209 40.356 142.244 41.031 A 159.357 159.357 0 0 0 142.25 41.15 Q 142.3 42.095 142.3 43.484 A 84.531 84.531 0 0 1 142.3 43.5 Q 142.3 44.714 142.256 46.233 A 135.559 135.559 0 0 1 142.25 46.45 Q 142.2 48.1 142 49.6 Q 144.049 47.063 147.098 43.336 A 2261.032 2261.032 0 0 1 147.25 43.15 Q 150.4 39.3 154.1 34.75 Q 157.8 30.2 161.6 25.6 A 2756.836 2756.836 0 0 1 167.131 18.925 A 2415.049 2415.049 0 0 1 168.9 16.8 Q 171.306 13.913 173.311 11.522 A 1542.722 1542.722 0 0 1 175.05 9.45 Q 177.079 7.038 178.316 5.535 A 167.869 167.869 0 0 0 179 4.7 A 12.266 12.266 0 0 1 184.745 1.067 A 14.592 14.592 0 0 1 184.8 1.05 Q 188.3 0 191.8 0 L 198 0 A 12.342 12.342 0 0 0 196.648 1.215 Q 195.334 2.567 193.88 4.686 A 44.259 44.259 0 0 0 193.4 5.4 Q 190.9 9.2 188.55 13.6 A 396.082 396.082 0 0 0 186.342 17.792 Q 185.306 19.789 184.407 21.586 A 231.357 231.357 0 0 0 184.4 21.6 A 272.59 272.59 0 0 0 181.111 28.702 A 332.924 332.924 0 0 0 179.1 33.3 Q 176.4 39.6 174.3 45.8 Q 172.2 52 171.2 57.3 Q 170.9 58.9 170.9 60.7 A 10.913 10.913 0 0 0 171.062 62.627 A 8.072 8.072 0 0 0 171.65 64.55 A 2.783 2.783 0 0 0 172.463 65.617 Q 172.989 66.027 173.733 66.149 A 4.13 4.13 0 0 0 174.4 66.2 A 5.073 5.073 0 0 0 175.626 66.036 Q 176.818 65.738 178.3 64.9 L 178.4 64.9 Q 178.583 64.9 178.683 65.194 A 1.237 1.237 0 0 1 178.7 65.25 Q 178.8 65.6 178.6 65.8 Q 176.7 67.8 172.8 69.2 A 24.924 24.924 0 0 1 168.884 70.272 A 19.281 19.281 0 0 1 165.4 70.6 A 11.548 11.548 0 0 1 163.555 70.464 Q 162.611 70.311 161.878 69.985 A 4.108 4.108 0 0 1 160.1 68.55 A 7.756 7.756 0 0 1 158.949 65.829 Q 158.7 64.708 158.7 63.4 A 23.391 23.391 0 0 1 158.876 60.621 Q 159.044 59.219 159.373 57.676 A 40.1 40.1 0 0 1 159.5 57.1 Q 160.171 53.892 161.65 49.793 A 94.394 94.394 0 0 1 162.75 46.9 A 256.212 256.212 0 0 1 166.265 38.528 A 302.032 302.032 0 0 1 168.05 34.55 Q 171 28.1 173.95 22.2 Q 176.9 16.3 179.1 12.1 A 171.732 171.732 0 0 0 176.619 14.438 A 186.835 186.835 0 0 0 176.45 14.6 A 43.693 43.693 0 0 0 174.743 16.342 A 52.758 52.758 0 0 0 173.7 17.5 Q 167.9 24 163.15 29.85 A 568.628 568.628 0 0 0 154.322 40.997 A 523.343 523.343 0 0 0 154.05 41.35 Q 149.7 47 145.1 52.9 Q 143.039 55.62 141.692 57.219 A 40.115 40.115 0 0 1 141.15 57.85 Q 139.7 59.5 138.55 60.05 A 5.236 5.236 0 0 1 137.351 60.445 Q 136.79 60.561 136.142 60.591 A 9.853 9.853 0 0 1 135.7 60.6 Q 133.742 60.6 131.355 59.68 A 20.93 20.93 0 0 1 130 59.1 Q 131.354 57.456 131.913 52.165 A 49.897 49.897 0 0 0 131.95 51.8 A 107.148 107.148 0 0 0 132.326 46.594 Q 132.456 43.936 132.489 40.994 A 179.809 179.809 0 0 0 132.5 39 A 233.193 233.193 0 0 0 132.117 25.842 A 258.323 258.323 0 0 0 132 23.9 Q 131.57 17.197 130.771 11.823 A 99.396 99.396 0 0 0 130.5 10.1 Q 129.9 11.1 128.35 14.5 Q 126.8 17.9 124.65 22.85 Q 122.5 27.8 120.1 33.55 Q 117.7 39.3 115.45 45.05 A 294.979 294.979 0 0 0 112.833 51.984 A 240.43 240.43 0 0 0 111.45 55.9 Q 110.11 59.805 109.269 62.889 A 67.428 67.428 0 0 0 108.8 64.7 A 38.43 38.43 0 0 0 108.505 66.007 Q 107.956 68.663 108.2 69.8 Z" vector-effect="non-scaling-stroke"/></g></svg>